<?xml version="1.0" encoding="UTF-8" standalone="no"?>
<!DOCTYPE svg PUBLIC "-//W3C//DTD SVG 1.1//EN" "http://www.w3.org/Graphics/SVG/1.1/DTD/svg11.dtd">
<svg width="100%" height="100%" viewBox="0 0 842 596" version="1.1" xmlns="http://www.w3.org/2000/svg" xmlns:xlink="http://www.w3.org/1999/xlink" xml:space="preserve" xmlns:serif="http://www.serif.com/" style="fill-rule:evenodd;clip-rule:evenodd;stroke-linejoin:round;stroke-miterlimit:2;">
    <g transform="matrix(0.481551,0,0,0.519259,120.122,-18.3194)">
        <ellipse cx="624.5" cy="608.5" rx="509.5" ry="472.5" style="fill:rgb(92,104,255);"/>
        <ellipse cx="624.5" cy="608.5" rx="509.5" ry="472.5" style="fill:rgb(70,78,181);"/>
        <g transform="matrix(1.02068,0,0,0.988493,54.7801,55.932)">
            <path d="M558.179,81C282.675,81 59,295.185 59,559C59,822.815 282.675,1037 558.179,1037C366.137,988.731 210.223,791.163 210.223,559C210.223,326.837 366.137,129.269 558.179,81Z" style="fill:rgb(92,104,255);"/>
        </g>
        <g id="v" transform="matrix(0.200771,0,0,0.18619,228.143,234.577)">
            <path d="M2947.77,1754.38C2988.49,1482.12 2781.21,1335.77 2497.77,1238.14L2589.72,869.34L2365.22,813.4L2275.71,1172.49C2216.69,1157.77 2156.08,1143.9 2095.84,1130.15L2186,768.69L1961.64,712.75L1869.64,1081.43C1820.8,1070.31 1772.83,1059.32 1726.29,1047.74L1726.55,1046.58L1416.96,969.27L1357.24,1209.05C1357.24,1209.05 1523.8,1247.23 1520.29,1249.58C1611.2,1272.27 1627.64,1332.45 1624.91,1380.15L1520.17,1800.3C1526.43,1801.89 1525.15,1777.79 1519.78,1801.92L1372.97,2390.49C1361.86,2418.11 1333.66,2459.56 1270.1,2443.82C1272.35,2447.08 1106.93,2403.1 1106.93,2403.1L995.47,2660.08L1287.62,2732.91C1341.97,2746.54 1395.23,2760.8 1447.68,2774.21L1354.78,3147.24L1579.02,3203.18L1671.02,2834.11C1732.28,2850.74 1791.73,2866.08 1849.93,2880.54L1758.24,3247.87L1982.75,3303.81L2075.64,2931.48C2458.46,3003.93 2746.31,2974.72 2867.47,2628.46C2965.1,2349.68 2862.61,2188.88 2661.21,2084.02C2807.9,2050.19 2918.39,1953.71 2947.85,1754.41L2947.78,1754.36L2947.77,1754.38ZM2434.84,2473.64C2365.46,2752.42 1896.08,2601.72 1743.9,2563.93L1867.18,2069.73C2019.35,2107.72 2507.35,2182.9 2434.85,2473.64L2434.84,2473.64ZM2504.27,1750.34C2440.98,2003.92 2050.31,1875.09 1923.58,1843.5L2035.35,1395.29C2162.08,1426.88 2570.2,1485.84 2504.29,1750.34L2504.27,1750.34Z" style="fill:white;fill-rule:nonzero;"/>
        </g>
        <g transform="matrix(1.29901,0,0,1.20468,-389.317,120.029)">
            <clipPath id="_clip1">
                <path d="M928.934,119.83L928.934,740.661L442.548,740.661L442.548,70.296L926.969,70.296L928.934,119.83Z"/>
            </clipPath>
            <g clip-path="url(#_clip1)">
                <path d="M788.5,87C963.181,87 1105,228.819 1105,403.5C1105,578.181 963.181,720 788.5,720C613.819,720 472,578.181 472,403.5C472,228.819 613.819,87 788.5,87ZM788.5,146.278C930.465,146.278 1045.72,261.535 1045.72,403.5C1045.72,545.465 930.465,660.722 788.5,660.722C646.535,660.722 531.278,545.465 531.278,403.5C531.278,261.535 646.535,146.278 788.5,146.278Z" style="fill:white;"/>
            </g>
        </g>
    </g>
</svg>
